<mxfile host="app.diagrams.net" modified="2024-03-27T00:33:16.256Z" agent="Mozilla/5.0 (Macintosh; Intel Mac OS X 10_15_7) AppleWebKit/537.36 (KHTML, like Gecko) Chrome/122.0.0.0 Safari/537.36" etag="Q4S4-OROx1yOeBuRxOjf" version="24.0.5" type="github">
  <diagram name="第 1 页" id="fUKrgiZVZqlbqDF1et7b">
    <mxGraphModel dx="1026" dy="650" grid="0" gridSize="10" guides="1" tooltips="1" connect="1" arrows="1" fold="1" page="1" pageScale="1" pageWidth="827" pageHeight="1169" math="0" shadow="0">
      <root>
        <mxCell id="0" />
        <mxCell id="1" parent="0" />
        <mxCell id="E08aBB320qDKgRCVe7n4-1" value="&lt;font style=&quot;font-size: 20px;&quot; color=&quot;#ffffff&quot;&gt;导入SDK&lt;/font&gt;" style="rounded=0;whiteSpace=wrap;html=1;fillColor=#4176bd;strokeColor=none;" vertex="1" parent="1">
          <mxGeometry x="203" y="440" width="181" height="96" as="geometry" />
        </mxCell>
        <mxCell id="E08aBB320qDKgRCVe7n4-2" value="&lt;font style=&quot;font-size: 20px;&quot; color=&quot;#ffffff&quot;&gt;进出房间&lt;/font&gt;" style="rounded=0;whiteSpace=wrap;html=1;fillColor=#4176bd;strokeColor=none;" vertex="1" parent="1">
          <mxGeometry x="524" y="442" width="181" height="96" as="geometry" />
        </mxCell>
        <mxCell id="E08aBB320qDKgRCVe7n4-3" value="&lt;font style=&quot;font-size: 20px;&quot; color=&quot;#ffffff&quot;&gt;打开自己的&lt;/font&gt;&lt;div&gt;&lt;font style=&quot;font-size: 20px;&quot; color=&quot;#ffffff&quot;&gt;音视频流&lt;/font&gt;&lt;/div&gt;" style="rounded=0;whiteSpace=wrap;html=1;fillColor=#4176bd;strokeColor=none;" vertex="1" parent="1">
          <mxGeometry x="205" y="639" width="181" height="96" as="geometry" />
        </mxCell>
        <mxCell id="E08aBB320qDKgRCVe7n4-4" value="&lt;font style=&quot;font-size: 20px;&quot; color=&quot;#ffffff&quot;&gt;订阅远端的&lt;/font&gt;&lt;div&gt;&lt;font style=&quot;font-size: 20px;&quot; color=&quot;#ffffff&quot;&gt;音视频流&lt;/font&gt;&lt;/div&gt;" style="rounded=0;whiteSpace=wrap;html=1;fillColor=#4176bd;strokeColor=none;" vertex="1" parent="1">
          <mxGeometry x="524" y="641" width="181" height="96" as="geometry" />
        </mxCell>
        <mxCell id="E08aBB320qDKgRCVe7n4-5" value="" style="shape=flexArrow;endArrow=classic;html=1;rounded=0;strokeColor=#4176bd;strokeWidth=3;width=19;endSize=9.67;" edge="1" parent="1">
          <mxGeometry width="50" height="50" relative="1" as="geometry">
            <mxPoint x="417" y="495.5" as="sourcePoint" />
            <mxPoint x="491" y="495" as="targetPoint" />
          </mxGeometry>
        </mxCell>
        <mxCell id="E08aBB320qDKgRCVe7n4-6" value="" style="shape=flexArrow;endArrow=classic;html=1;rounded=0;strokeColor=#4176bd;strokeWidth=3;width=19;endSize=9.67;" edge="1" parent="1">
          <mxGeometry width="50" height="50" relative="1" as="geometry">
            <mxPoint x="492" y="685" as="sourcePoint" />
            <mxPoint x="418" y="685.5" as="targetPoint" />
          </mxGeometry>
        </mxCell>
        <mxCell id="E08aBB320qDKgRCVe7n4-7" value="" style="shape=flexArrow;endArrow=classic;html=1;rounded=0;strokeColor=#4176bd;strokeWidth=3;width=19;endSize=9.67;" edge="1" parent="1">
          <mxGeometry width="50" height="50" relative="1" as="geometry">
            <mxPoint x="614" y="559" as="sourcePoint" />
            <mxPoint x="614" y="623" as="targetPoint" />
          </mxGeometry>
        </mxCell>
      </root>
    </mxGraphModel>
  </diagram>
</mxfile>
